<svg width="571" height="180" viewBox="0 0 571 180" fill="none" xmlns="http://www.w3.org/2000/svg">
<circle cx="90" cy="90" r="82.5" stroke="#3B623F" stroke-width="15"/>
<circle cx="89.5" cy="43.5" r="13.5" fill="#3B623F"/>
<path fill-rule="evenodd" clip-rule="evenodd" d="M155.981 41.1477C141.356 57.3796 119.611 81.5133 119.611 96.8745C119.611 116.632 136.087 152.496 143.692 160.419C146.476 163.32 141.597 159.849 133.712 154.24C120.882 145.112 100.091 130.323 91.4093 128.111C91.0663 128.26 90.6985 128.351 90.3047 128.38C82.8065 128.938 60.1458 145.058 46.4925 154.77L46.4828 154.776C38.6003 160.384 33.7237 163.853 36.5074 160.953C44.1126 153.03 60.5881 117.166 60.5881 97.4085C60.5881 82.0467 38.8437 57.9138 24.2183 41.682L24.1755 41.635C22.5484 39.8286 21.0098 38.1206 19.5996 36.534L89.8344 71.5427L89.8945 71.2431L160.6 36C159.204 37.5699 157.683 39.2584 156.075 41.0437L156.02 41.1047L155.981 41.1477Z" fill="#3B623F"/>
<path d="M256.922 58.9688C265.766 58.9688 272.219 60.7812 276.281 64.4062C280.344 68.0312 282.375 73.1094 282.375 79.6406C282.375 82.6094 281.906 85.4375 280.969 88.125C280.062 90.7812 278.562 93.1406 276.469 95.2031C274.375 97.2344 271.609 98.8438 268.172 100.031C264.766 101.219 260.562 101.812 255.562 101.812H248.25V127.5H237V58.9688H256.922ZM256.172 68.2969H248.25V92.4375H254.391C257.922 92.4375 260.922 92.0312 263.391 91.2188C265.859 90.375 267.734 89.0469 269.016 87.2344C270.297 85.4219 270.938 83.0312 270.938 80.0625C270.938 76.0938 269.734 73.1406 267.328 71.2031C264.953 69.2656 261.234 68.2969 256.172 68.2969ZM341.875 101.438C341.875 105.75 341.312 109.578 340.188 112.922C339.062 116.266 337.422 119.094 335.266 121.406C333.109 123.688 330.516 125.438 327.484 126.656C324.453 127.844 321.031 128.438 317.219 128.438C313.656 128.438 310.391 127.844 307.422 126.656C304.453 125.438 301.875 123.688 299.688 121.406C297.531 119.094 295.859 116.266 294.672 112.922C293.484 109.578 292.891 105.75 292.891 101.438C292.891 95.7188 293.875 90.875 295.844 86.9062C297.844 82.9062 300.688 79.8594 304.375 77.7656C308.062 75.6719 312.453 74.625 317.547 74.625C322.328 74.625 326.547 75.6719 330.203 77.7656C333.859 79.8594 336.719 82.9062 338.781 86.9062C340.844 90.9062 341.875 95.75 341.875 101.438ZM304.234 101.438C304.234 105.219 304.688 108.453 305.594 111.141C306.531 113.828 307.969 115.891 309.906 117.328C311.844 118.734 314.344 119.438 317.406 119.438C320.469 119.438 322.969 118.734 324.906 117.328C326.844 115.891 328.266 113.828 329.172 111.141C330.078 108.453 330.531 105.219 330.531 101.438C330.531 97.6562 330.078 94.4531 329.172 91.8281C328.266 89.1719 326.844 87.1562 324.906 85.7812C322.969 84.375 320.453 83.6719 317.359 83.6719C312.797 83.6719 309.469 85.2031 307.375 88.2656C305.281 91.3281 304.234 95.7188 304.234 101.438ZM372.969 128.438C366.781 128.438 361.812 126.188 358.062 121.688C354.344 117.156 352.484 110.484 352.484 101.672C352.484 92.7656 354.375 86.0312 358.156 81.4688C361.969 76.9062 366.984 74.625 373.203 74.625C375.828 74.625 378.125 74.9844 380.094 75.7031C382.062 76.3906 383.75 77.3281 385.156 78.5156C386.594 79.7031 387.812 81.0312 388.812 82.5H389.328C389.172 81.5312 388.984 80.1406 388.766 78.3281C388.578 76.4844 388.484 74.7812 388.484 73.2188V54.5625H399.547V127.5H390.922L388.953 120.422H388.484C387.547 121.922 386.359 123.281 384.922 124.5C383.516 125.688 381.828 126.641 379.859 127.359C377.922 128.078 375.625 128.438 372.969 128.438ZM376.062 119.484C380.781 119.484 384.109 118.125 386.047 115.406C387.984 112.688 388.984 108.609 389.047 103.172V101.719C389.047 95.9062 388.109 91.4531 386.234 88.3594C384.359 85.2344 380.938 83.6719 375.969 83.6719C372 83.6719 368.969 85.2812 366.875 88.5C364.812 91.6875 363.781 96.1406 363.781 101.859C363.781 107.578 364.812 111.953 366.875 114.984C368.969 117.984 372.031 119.484 376.062 119.484ZM462.281 101.438C462.281 105.75 461.719 109.578 460.594 112.922C459.469 116.266 457.828 119.094 455.672 121.406C453.516 123.688 450.922 125.438 447.891 126.656C444.859 127.844 441.438 128.438 437.625 128.438C434.062 128.438 430.797 127.844 427.828 126.656C424.859 125.438 422.281 123.688 420.094 121.406C417.938 119.094 416.266 116.266 415.078 112.922C413.891 109.578 413.297 105.75 413.297 101.438C413.297 95.7188 414.281 90.875 416.25 86.9062C418.25 82.9062 421.094 79.8594 424.781 77.7656C428.469 75.6719 432.859 74.625 437.953 74.625C442.734 74.625 446.953 75.6719 450.609 77.7656C454.266 79.8594 457.125 82.9062 459.188 86.9062C461.25 90.9062 462.281 95.75 462.281 101.438ZM424.641 101.438C424.641 105.219 425.094 108.453 426 111.141C426.938 113.828 428.375 115.891 430.312 117.328C432.25 118.734 434.75 119.438 437.812 119.438C440.875 119.438 443.375 118.734 445.312 117.328C447.25 115.891 448.672 113.828 449.578 111.141C450.484 108.453 450.938 105.219 450.938 101.438C450.938 97.6562 450.484 94.4531 449.578 91.8281C448.672 89.1719 447.25 87.1562 445.312 85.7812C443.375 84.375 440.859 83.6719 437.766 83.6719C433.203 83.6719 429.875 85.2031 427.781 88.2656C425.688 91.3281 424.641 95.7188 424.641 101.438ZM502.234 74.625C503.109 74.625 504.062 74.6719 505.094 74.7656C506.125 74.8594 507.016 74.9844 507.766 75.1406L506.734 85.4531C506.078 85.2656 505.266 85.125 504.297 85.0312C503.359 84.9375 502.516 84.8906 501.766 84.8906C499.797 84.8906 497.922 85.2188 496.141 85.875C494.359 86.5 492.781 87.4688 491.406 88.7812C490.031 90.0625 488.953 91.6719 488.172 93.6094C487.391 95.5469 487 97.7969 487 100.359V127.5H475.938V75.6094H484.562L486.062 84.75H486.578C487.609 82.9062 488.891 81.2188 490.422 79.6875C491.953 78.1562 493.703 76.9375 495.672 76.0312C497.672 75.0938 499.859 74.625 502.234 74.625ZM564.312 101.438C564.312 105.75 563.75 109.578 562.625 112.922C561.5 116.266 559.859 119.094 557.703 121.406C555.547 123.688 552.953 125.438 549.922 126.656C546.891 127.844 543.469 128.438 539.656 128.438C536.094 128.438 532.828 127.844 529.859 126.656C526.891 125.438 524.312 123.688 522.125 121.406C519.969 119.094 518.297 116.266 517.109 112.922C515.922 109.578 515.328 105.75 515.328 101.438C515.328 95.7188 516.312 90.875 518.281 86.9062C520.281 82.9062 523.125 79.8594 526.812 77.7656C530.5 75.6719 534.891 74.625 539.984 74.625C544.766 74.625 548.984 75.6719 552.641 77.7656C556.297 79.8594 559.156 82.9062 561.219 86.9062C563.281 90.9062 564.312 95.75 564.312 101.438ZM526.672 101.438C526.672 105.219 527.125 108.453 528.031 111.141C528.969 113.828 530.406 115.891 532.344 117.328C534.281 118.734 536.781 119.438 539.844 119.438C542.906 119.438 545.406 118.734 547.344 117.328C549.281 115.891 550.703 113.828 551.609 111.141C552.516 108.453 552.969 105.219 552.969 101.438C552.969 97.6562 552.516 94.4531 551.609 91.8281C550.703 89.1719 549.281 87.1562 547.344 85.7812C545.406 84.375 542.891 83.6719 539.797 83.6719C535.234 83.6719 531.906 85.2031 529.812 88.2656C527.719 91.3281 526.672 95.7188 526.672 101.438Z" fill="#1F3622"/>
</svg>
